<?xml version="1.0" encoding="utf-8"?>
<!DOCTYPE svg PUBLIC "-//W3C//DTD SVG 1.0//EN" "http://www.w3.org/TR/2001/REC-SVG-20010904/DTD/svg10.dtd">
<svg version="1.0" xmlns="http://www.w3.org/2000/svg" width="1920px" height="1080px" viewBox="0 0 1920 1080" preserveAspectRatio="xMidYMid meet">
 <g fill="#ffffff">
  <path d="M1422 919 c-11.1 -1.5 -15.9 -5.4 -14.4 -11.6 1.1 -4.2 4.6 -5.7 11.2 -5 18.1 2 18.8 2 23.5 -0.3 2.5 -1.2 5.2 -3.2 6 -4.5 1.8 -2.8 4.7 -12.1 4.7 -15.3 l0 -2.3 -4.1 2.7 c-3.3 2.2 -5.7 2.8 -11 3.1 -18 1.1 -30.3 -11 -30.3 -29.8 0 -23.7 15.9 -39.2 40.4 -39.3 7.5 0 15.7 2.4 17.4 5.2 0.4 0.6 1.6 1.1 2.6 1.1 1 0 2.8 1.2 4 2.8 2.5 3.1 2.5 6.8 -0.3 29.7 -0.9 7.2 -2 18.6 -2.5 25.5 -1.1 14.1 -3.4 22 -8.2 28 -6.7 8.4 -21.7 12.3 -39 10z m19.8 -49.4 c7 -3.7 10.6 -10.1 12.7 -22.8 2.2 -13.5 2.2 -13.5 -2.4 -14.9 -8.9 -2.6 -20.1 2.2 -24.1 10.5 -3.1 6.4 -3.7 15.4 -1.6 21.1 2.6 6.8 9.1 9.4 15.4 6.1z"/>
  <path d="M420.8 887.5 c-3.7 -2 -6.8 -12.2 -11.4 -36.5 -4.6 -24.8 -4.6 -24.9 -6.9 -18 -1 3 -4.2 11.1 -7.3 18 -7.1 16.4 -9 22 -8.9 26.3 0 1.9 -0.6 4.3 -1.4 5.3 -2.2 2.7 -7.6 4.5 -11.4 3.8 -6.3 -1.1 -7.4 -3.4 -13.1 -27.9 -2.9 -12.4 -8.5 -32.1 -12.4 -43.8 -3.8 -11.7 -7 -22.3 -7 -23.6 0 -3.5 4.3 -7.1 8.5 -7.1 2 0 4.5 0.5 5.7 1.1 4 2.1 10.6 21 17.3 49.4 3.6 15.3 3.6 15.1 4.5 13.4 0.5 -0.8 4.2 -11.5 8.4 -23.7 10.4 -30.8 14.7 -38.2 21.8 -38.2 7.6 0 9.9 4.9 13.3 28.2 2.3 15.4 7.7 42.3 8.7 43.4 0.7 0.6 18.7 -45.6 21.4 -55.1 4.2 -14.6 7.1 -18.5 13.6 -18.5 5.6 0 9.2 3.7 8.5 8.8 -0.7 5.5 -10.3 31.3 -19.1 51.2 -4.3 9.6 -9.1 20.8 -10.7 24.8 -4.4 10.9 -7.6 16.9 -10.1 18.6 -2.8 2 -8.4 2 -12 0.1z"/>
  <path d="M1569.3 887.2 c-1.3 -0.2 -3.1 -1.4 -4.1 -2.7 -2.7 -3.4 -4.7 -20.2 -4.4 -37.6 0.1 -10.7 -0.1 -14.9 -1 -15.7 -4.1 -3.3 -14 4.7 -18.9 15.3 -3.7 7.7 -5 16.3 -4.2 26.6 0.6 7.3 0.5 7.8 -2 10.3 -3.8 3.7 -8.9 3.6 -12.9 -0.5 l-3.1 -3 0.7 -30.7 c0.4 -16.9 1 -31.5 1.2 -32.5 0.7 -2.1 5.4 -4.7 8.7 -4.7 3.4 0 7.4 3.5 8.2 7 0.4 1.7 0.8 3 1.1 3 0.2 0 2.4 -1.5 4.9 -3.4 5.7 -4.4 13.5 -6.2 19.7 -4.6 11.2 3.1 13.8 8.8 14.9 32.5 0.4 9.4 1.2 19.7 1.8 23 1.5 8.5 1.4 12 -0.6 14.4 -2 2.3 -6.6 3.9 -10 3.3z"/>
  <path d="M534.1 884.2 c-4 -3.9 -6.4 -17.4 -6.3 -34.7 0 -7.1 -0.2 -13.8 -0.5 -14.8 -0.8 -2.9 -3.4 -3.6 -7.7 -2.2 -4.7 1.6 -8.9 5.4 -13.1 12 -3 4.7 -3.2 5.7 -4.2 19.3 -1.2 16.8 -2.4 19.5 -8.8 20 -8.5 0.7 -10.8 -3 -9.4 -15.5 0.5 -4.8 0.9 -25.4 0.8 -45.8 0 -20.3 0 -37.5 0 -38.2 0.3 -4.2 9.4 -7 13.2 -4 4 3 4.4 5.6 4.3 24.4 l-0.2 18.2 5.2 -3.4 c14.4 -9.5 32 -5.9 35.5 7.2 0.6 2.3 1.6 11.1 2.1 19.6 0.6 8.5 1.7 19.4 2.5 24.2 1.7 9.8 1.5 11.6 -2.2 14.5 -3.7 2.9 -7.9 2.6 -11.2 -0.8z"/>
  <path d="M636.6 885.7 c-2.7 -2 -3.6 -7.9 -3.6 -25.3 0 -26.7 1 -40 3.2 -42.4 3.7 -3.9 12.3 -2 14 3.1 0.3 1 2 0.6 6.9 -1.9 9.2 -4.6 21.7 -5.9 26.9 -2.7 4.1 2.5 6.7 18.8 3.9 24.8 -2.3 5 -9.5 6.2 -13.4 2.2 -2 -1.9 -2.5 -3.4 -2.5 -7.5 l0 -5.2 -3.2 0.7 c-4.9 1 -11.3 5 -14.7 9.2 l-3 3.6 -0.3 18.8 c-0.3 18.3 -0.4 18.8 -2.7 21.3 -2.7 2.9 -8.4 3.5 -11.5 1.3z"/>
  <path d="M1107.3 884 l-4.1 -3 -4.8 2.1 c-3 1.3 -7.9 2.4 -12.5 2.6 -10.6 0.7 -17.7 -1.4 -23.3 -7.1 -6.1 -6 -8.1 -12.4 -8.1 -25.1 0.1 -8.9 0.4 -10.6 2.9 -15.8 3.3 -6.9 11 -14.8 17.4 -18.1 10.8 -5.4 22.3 -5.7 32.8 -0.7 7.8 3.7 9.8 6.1 9 10.3 -3.4 18 -2.6 32.1 2.3 43.2 3.3 7.3 3.3 9.4 -0.2 12.6 -3 2.8 -6.7 2.5 -11.4 -1z m-13.3 -15.2 l4.5 -2.3 -0.5 -7 c-0.3 -3.8 -0.5 -11.8 -0.4 -17.7 l0 -10.8 -4.2 0 c-5.8 0 -9.2 1.4 -13.8 5.8 -5.2 5 -7.6 10.4 -7.6 17.5 0 10.8 4.5 16.7 12.9 16.7 2.9 0 6.4 -0.9 9.1 -2.2z"/>
  <path d="M1144.1 886 c-5 -1.1 -12.4 -4.5 -14.1 -6.5 -0.6 -0.7 -1.4 -2.9 -1.7 -4.8 -0.4 -2.7 -0.1 -3.9 1.6 -5.6 2.6 -2.6 5.7 -2.6 14.6 -0.1 7.9 2.3 12.4 2.4 17.5 0.7 3 -1 3.5 -1.7 3.5 -4.2 0 -2.8 -0.7 -3.3 -9.5 -7.7 -16 -8 -19.1 -10 -22.2 -14.7 -4.5 -7.1 -3.5 -16.4 2.3 -21.8 5.3 -4.8 11.6 -6.6 25.1 -7.1 14 -0.5 16.9 -0.1 19.8 2.8 2.4 2.4 2.7 11 0.7 15 -2 4 -11.7 3.7 -11.7 -0.4 0 -2 -4.5 -2.8 -11.7 -2 -7.5 0.8 -11.5 3.2 -9.4 5.8 0.7 0.9 6.4 4.1 12.7 7.2 17.3 8.6 22.4 13.8 22.4 22.9 0 9.1 -5.3 15.6 -15.3 19 -6.2 2 -18.5 2.8 -24.6 1.5z"/>
  <path d="M582.3 884.9 c-9.8 -1.9 -18.7 -7.9 -22.4 -15.1 -6.5 -12.7 -3.3 -32.8 7.2 -44.2 8.1 -8.9 19.5 -12.2 33.1 -9.7 12.3 2.4 18.8 8.3 18.8 17 0 9.4 -3.8 12.6 -28.4 23.5 l-15.8 7 2.8 2.3 c6.6 5.3 20.8 5.7 30.1 1 9.3 -4.8 16.1 -2.9 14.9 4.1 -0.3 1.9 -1.6 4.6 -2.8 5.9 -6.7 7.2 -23.9 10.9 -37.5 8.2z m17 -49.8 l3.1 -2 -2.7 -1 c-4 -1.5 -12.3 -1.4 -15.5 0.3 -4.4 2.3 -10.2 10 -10.2 13.5 0 1.1 20 -7.5 25.3 -10.8z"/>
  <path d="M721.3 885 c-10.9 -2.3 -20.4 -9.2 -23.8 -17.3 -3.8 -9 -2.8 -22.3 2.4 -33.2 7.6 -15.9 22.7 -22.5 41.2 -18.1 11.2 2.6 16.9 8.2 16.9 16.5 0 9.3 -4.9 13.1 -33.3 25.6 -10.2 4.6 -10.7 4.9 -9.1 6.6 5.2 5.7 20.4 6.5 30.7 1.6 7.5 -3.6 12.6 -3.4 14.5 0.6 1.2 2.4 1.1 3.2 -0.5 6.4 -2.3 4.6 -5.2 6.7 -12.8 9.4 -6.7 2.4 -19.6 3.3 -26.2 1.9z m16.6 -49.8 l3.5 -2.1 -3 -1.1 c-1.6 -0.7 -5.7 -1 -9.1 -0.8 -5.3 0.3 -6.8 0.9 -9.4 3.3 -2.9 2.9 -6.9 9.3 -6.9 11.4 0 1 19.3 -7.3 24.9 -10.7z"/>
  <path d="M924.9 884.7 c-10.8 -3.1 -19.1 -10.8 -22.5 -20.9 -1.2 -3.7 -1.5 -7.5 -1.2 -14.7 0.3 -8.5 0.8 -10.6 3.6 -16.4 6.1 -12.4 16.7 -18.8 31.2 -18.8 4.8 0 9.2 0.6 11.5 1.5 2.1 0.9 3.8 1.6 4 1.6 0.1 0 0.5 -6.3 0.9 -14.1 0.8 -16.4 2 -20.8 5.9 -22.7 3.7 -1.8 8.3 -0.7 10.4 2.4 1.4 2.2 1.5 4.6 0.8 19.2 -0.5 9.2 -1 30.4 -1.1 47.2 -0.1 16.8 -0.3 31.1 -0.3 31.7 -0.1 1.5 -5.3 4.3 -7.9 4.3 -1.1 0 -3.1 -0.9 -4.5 -2 -2.5 -2 -2.5 -2 -7.2 0.1 -5.8 2.6 -17.3 3.4 -23.6 1.6z m20.4 -18.8 l4.7 -3.1 0 -12.7 c0 -14.2 -0.7 -16.3 -6.6 -18.7 -4 -1.7 -11.2 -1.8 -15.1 -0.3 -6.6 2.5 -11.3 10.8 -11.3 20 0 10.3 7.7 17.9 18.1 17.9 4.5 0 6.4 -0.6 10.2 -3.1z"/>
  <path d="M1003.5 884.6 c-15.3 -3.8 -23.5 -13 -24.3 -27.6 -1 -17.6 7.8 -33.9 21.3 -39.6 9.4 -3.9 26.3 -2.4 34.6 3 6.1 4.1 8.6 12.4 5.5 18.4 -3.4 6.5 -9.8 10.2 -39.4 22.9 -2.9 1.2 -3.2 1.6 -2 3 2.6 3.2 9.1 5.3 16.3 5.3 5.7 0 8.2 -0.5 13.3 -3 6.6 -3.1 12.9 -3.9 15 -1.8 1.9 1.9 1.4 8.2 -0.8 11.1 -5.9 7.5 -25.9 11.7 -39.5 8.3z m8.3 -44.7 c6.7 -3.2 12.2 -6.2 12.2 -6.7 0 -1.4 -3.6 -2.2 -9.9 -2.2 -8.2 0 -13.5 4.1 -17 13.2 -1.3 3.3 -1.7 3.5 14.7 -4.3z"/>
  <path d="M1261.3 884 c-2.1 -1.3 -3.5 -3.1 -4.2 -5.7 -0.7 -2.4 -1.1 -19.7 -1.1 -46.6 l0 -42.9 2.8 -2.7 c3.6 -3.7 13.5 -5.5 25.8 -4.9 10.7 0.5 19.5 4 26.9 10.9 11.2 10.3 12.5 24.5 3.4 36.7 -2.2 2.8 -3.5 5.2 -3 5.2 2 0 11.1 9.3 13 13.3 2.4 5 2.7 11.3 0.7 16 -1.5 3.7 -9.8 11.7 -14.6 14.2 -6.1 3.1 -14.4 5.6 -24 7 -13.5 2.1 -21.8 1.9 -25.7 -0.5z m28.6 -18 c9.8 -2 17.8 -5.4 19.5 -8.2 1.5 -2.5 -1.9 -6.7 -8.5 -10.3 -4.8 -2.6 -6.5 -3 -16.1 -3.3 l-10.8 -0.4 0 12.1 0 12.1 3.3 0 c1.7 0 7.4 -0.9 12.6 -2z m2.1 -41.2 c4.9 -1.5 7.9 -3.7 9.6 -6.9 5 -9.7 -4.2 -18.8 -19.8 -19.7 l-7.8 -0.5 0 14.1 0 14.1 2.8 0.4 c3.5 0.5 10.8 -0.2 15.2 -1.5z"/>
  <path d="M1360.3 884.9 c-9.8 -1.9 -18.7 -7.9 -22.4 -15.1 -6.5 -12.7 -3.3 -32.8 7.2 -44.2 8.1 -8.9 19.5 -12.2 33.1 -9.7 12.3 2.4 18.8 8.3 18.8 17 0 9.4 -3.8 12.6 -28.4 23.5 l-15.8 7 2.8 2.3 c6.6 5.3 20.8 5.7 30.1 1 9.3 -4.8 16.1 -2.9 14.9 4.1 -0.3 1.9 -1.6 4.6 -2.8 5.9 -6.7 7.2 -23.9 10.9 -37.5 8.2z m17 -49.8 l3.1 -2 -2.7 -1 c-4 -1.5 -12.3 -1.4 -15.5 0.3 -4.4 2.3 -10.2 10 -10.2 13.5 0 1.1 20 -7.5 25.3 -10.8z"/>
  <path d="M831.5 882.8 c-2.2 -2 -2.9 -3.4 -2.9 -6.3 0 -5.7 3.3 -8 12.5 -8.9 4 -0.3 7.4 -0.8 7.5 -0.9 0.1 -0.1 0.4 -14.4 0.6 -31.7 l0.4 -31.5 -8.9 0 c-8.5 0 -9 -0.1 -11.3 -2.8 -3.1 -3.6 -3.1 -7.8 0 -11.4 l2.4 -2.8 16.9 -0.3 c10.6 -0.2 21.6 0.2 29.8 1.2 11.8 1.4 13.2 1.7 15.3 4.1 3.2 3.7 2.9 8 -0.9 11.7 -3 3 -3.1 3.1 -10.7 2.4 -4.2 -0.4 -9.1 -0.9 -10.8 -1.2 l-3.1 -0.6 -0.6 10.8 c-0.4 5.9 -0.7 19.6 -0.7 30.6 l0 19.8 9.4 0 c5.2 0 10.6 0.4 12 1 3.8 1.4 5.9 5.3 5.2 9.5 -1.2 6.1 -3.6 6.9 -23.5 7.6 -9.7 0.4 -21.7 1 -26.6 1.4 -8.8 0.7 -9.2 0.7 -12 -1.7z"/>
  <path d="M1491 883.7 c-5 -2.5 -5.2 -4 -4.6 -34 0.5 -28 0.9 -30.6 4.5 -33.4 2.8 -2.1 8.9 -1.6 11.6 1.1 l2.3 2.3 -0.5 29.4 c-0.2 17.2 -0.9 30.3 -1.5 31.5 -1.9 4 -7.3 5.4 -11.8 3.1z"/>
  <path d="M140.9 873.2 c-16.1 -8.3 -16.1 -32.1 0 -40.4 12.1 -6.3 26 -1.7 31.7 10.6 9.4 20.2 -11.9 40.1 -31.7 29.8z"/>
  <path d="M211.3 873.5 c-8 -4 -12.3 -11.4 -12.3 -21.4 0 -11.7 10.2 -22.1 21.9 -22.1 7.6 0 12 1.8 17 6.8 18.6 18.7 -3 48.4 -26.6 36.7z"/>
  <path d="M282.5 874.1 c-8.4 -3.8 -13.5 -11.7 -13.5 -21.1 0 -20.7 24.3 -30.8 38.9 -16.2 12 12.1 8.2 31.3 -7.5 37.8 -4.6 1.9 -13.1 1.7 -17.9 -0.5z"/>
  <path d="M1610 873.3 c-3.1 -1.7 -6.5 -4.5 -8.4 -7.1 -2.9 -4.1 -3.1 -4.9 -3.1 -13.2 0 -8.3 0.2 -9.1 3.1 -13.2 7.9 -10.8 23.6 -13 33.7 -4.7 7.9 6.5 10.6 17.5 6.7 26.7 -5.5 12.8 -19.8 17.9 -32 11.5z"/>
  <path d="M1680.3 873.5 c-8.9 -4.4 -12.7 -11.6 -12.1 -22.2 0.3 -5.7 0.9 -7.6 3.6 -11.5 9.6 -14 31.6 -12.7 39.2 2.3 10.4 20.2 -10.4 41.5 -30.7 31.4z"/>
  <path d="M1749.9 873.2 c-4.2 -2.1 -6.1 -4 -8.6 -8.2 -7 -11.5 -3.1 -26.1 8.6 -32.2 9.5 -5 19.5 -3.5 27 4 9 9.1 9.5 21.7 1.2 31.3 -7 8.3 -18.2 10.3 -28.2 5.1z"/>
  <path d="M1495.3 804.3 c-3.2 -0.6 -7.3 -5.9 -7.3 -9.5 0 -7.8 11.6 -11.9 17.4 -6.2 2.8 2.9 3.5 7.9 1.5 11.6 -1 1.8 -6.8 5 -8.6 4.7 -0.4 -0.1 -1.8 -0.4 -3 -0.6z"/>
  <path d="M127.5 605 c-32.4 -74.2 -59.2 -135 -59.5 -135 -0.3 0 -7.2 2.9 -15.4 6.5 -8.2 3.6 -15.1 6.4 -15.3 6.1 -0.4 -0.4 -11.3 -80 -11 -80.2 2.5 -1.4 95.4 -41.4 101.9 -43.8 21.9 -8.2 34 -10.8 50.8 -10.9 24.6 -0.1 53.6 9.3 75.4 24.3 14.5 10 30.4 28.6 39 45.7 11.3 22.5 16 41.8 15.9 65.8 -0.1 33.7 -12.9 63.2 -38.7 89.1 -11.8 11.8 -23.3 19.7 -42.3 29 -7.3 3.6 -13.3 6.8 -13.3 7.1 0 0.3 9.7 22.8 21.6 50 12.1 27.5 21.3 49.8 20.8 50.3 -0.9 0.8 -66.8 30 -69.4 30.7 -1.1 0.3 -15.7 -32.2 -60.5 -134.7z m67.3 -74 c23.1 -11.9 34.8 -27.1 36 -46.9 0.6 -10.5 -0.8 -17.2 -5.9 -27.8 -7.6 -15.9 -21.2 -26.8 -36.7 -29.5 -9.9 -1.7 -22.9 0.7 -37.3 6.8 l-10.8 4.5 1.8 4.2 c10.9 25.1 40.4 92.4 40.8 93 0.8 1.3 2.4 0.8 12.1 -4.3z"/>
  <path d="M1719 729 c-10.2 -4.9 -24.2 -11.7 -31.1 -15 l-12.6 -6.1 43.9 -91.5 c24.2 -50.4 43.8 -91.8 43.5 -92 -0.2 -0.2 -6.5 -3.3 -14 -6.9 -7.5 -3.5 -13.7 -6.7 -13.7 -7 0 -0.7 49 -54.5 49.6 -54.5 0.3 0 2.3 0.9 4.5 2 2.2 1.2 4.3 1.9 4.8 1.6 0.4 -0.3 4.1 -7.5 8.2 -16.1 4 -8.5 7.9 -15.5 8.5 -15.5 1.7 0 69.7 14 70.2 14.4 0.4 0.4 -1.4 4.4 -15.2 32.9 l-7.6 15.8 19.7 9.5 19.6 9.4 -2.5 2.8 c-1.3 1.5 -11.6 12.8 -22.8 25.2 -11.2 12.4 -21.3 23.5 -22.4 24.7 l-2.1 2.2 -10.1 -4.8 -10.2 -4.9 -25 52.2 c-13.7 28.6 -33.4 69.8 -43.8 91.4 -10.3 21.5 -19.3 39.2 -19.9 39.2 -0.5 -0.1 -9.3 -4.1 -19.5 -9z"/>
  <path d="M1616.5 673.9 c-40.4 -3.8 -81.7 -17.4 -109.5 -36 -11.5 -7.7 -28.6 -24 -36.2 -34.6 -15.9 -22 -23.5 -44 -24.5 -70.8 -0.7 -18.4 1.1 -31.3 6.8 -49 14.1 -43.5 44.9 -76.1 85.4 -90.5 28.3 -10 59 -10.5 86.4 -1.4 32.2 10.7 55.3 28.2 70 53.1 18.3 31 21.2 72 8 115.3 -3 10.1 -9.3 25 -10.5 25 -0.6 0 -39 -13.2 -85.5 -29.4 -46.4 -16.1 -85.4 -29.7 -86.6 -30.1 -2.3 -0.6 -2.3 -0.5 -2.3 8.5 0 14.9 5 25 18.6 38.1 9.8 9.3 18.3 15 32.5 21.8 27 13 47.9 17.6 87 18.9 l18.7 0.7 -21.7 30.5 c-24.5 34.5 -20.7 31.4 -36.6 29.9z m23.9 -163 c1 -5.4 0.6 -16.2 -0.8 -21.7 -3.3 -12.4 -14.4 -24.5 -29 -31.8 -19.6 -9.6 -38.4 -9.4 -55.2 0.7 -6 3.6 -19.7 17.4 -19.1 19.3 0.3 1 99.4 36.3 102.3 36.5 0.6 0.1 1.4 -1.3 1.8 -3z"/>
  <path d="M418.6 644.2 c-0.2 -0.4 -13.3 -43.7 -29.1 -96.2 -15.8 -52.5 -29 -96 -29.4 -96.6 -0.4 -0.8 -4.7 0.1 -14 2.8 -7.3 2.2 -13.4 3.8 -13.6 3.6 -0.2 -0.2 -0.5 -16.7 -0.6 -36.8 l-0.3 -36.5 37.4 -11.2 c20.6 -6.2 37.7 -10.9 38.1 -10.5 0.3 0.4 2.3 6.7 4.5 14 l3.8 13.3 3.8 -8.2 c9.8 -21.2 23.2 -32.6 47.5 -40.3 4.5 -1.4 10.4 -2.8 13.2 -3.2 l5.1 -0.7 0 38.4 0 38.5 -7.1 1.8 c-23 5.9 -37.7 21.2 -38.7 40.1 -0.5 9.8 1.2 16.4 25.7 97.9 11.6 38.5 21 70 20.9 70.2 -0.2 0.1 -14 4.3 -30.8 9.4 -16.8 5 -31.7 9.5 -33.2 10 -1.5 0.5 -2.9 0.6 -3.2 0.2z"/>
  <path d="M1335.7 595 c-39.4 -3.3 -71 -13.1 -96.1 -29.7 -17.7 -11.7 -37.5 -33.2 -46 -50 -13.8 -27.3 -17.4 -58.4 -10.6 -91.1 3 -14.2 5.4 -21.2 12.6 -35.7 19.5 -39.5 52.5 -64.4 97.1 -73.4 28.5 -5.8 65.7 0.4 90.8 15.1 28.1 16.5 45.6 39.9 54 72.3 6.5 25.2 6.3 55.1 -0.7 84.3 -1.4 6 -2.7 9.2 -3.6 9.2 -1.5 0 -176.9 -32.8 -179.4 -33.6 -2.3 -0.7 -2.3 1.2 -0.2 11.3 2.1 10.2 5.3 16.2 12.2 23.1 14.7 14.7 36.3 25.1 63.5 30.7 25 5.2 43.6 5.3 77.4 0.6 7 -1 12.9 -1.7 13.1 -1.6 0.2 0.2 -7.2 15.4 -16.4 33.8 l-16.8 33.5 -3.5 0.5 c-7.2 1.1 -36.9 1.5 -47.4 0.7z m35.3 -166.8 c0 -12.7 -4.9 -24.1 -13.8 -32.3 -12.4 -11.4 -26.4 -17 -42.7 -17 -4.9 -0.1 -11.2 0.4 -13.9 1 -6.9 1.6 -16.1 6.5 -22.2 11.7 -5.2 4.4 -15.4 18.3 -15.4 20.9 0 0.9 5.3 2.3 16.8 4.4 9.2 1.8 32.9 6.3 52.7 10.1 19.8 3.8 36.6 6.9 37.3 6.9 0.8 0.1 1.2 -1.7 1.2 -5.7z"/>
  <path d="M646 582.4 c-11.7 -1.7 -18.1 -3.2 -27.9 -6.6 -21.7 -7.5 -37.4 -17.1 -52.7 -32.3 -21.7 -21.5 -34.3 -44.8 -40.1 -74 -2.5 -12.7 -2.4 -40.7 0.1 -52.5 6.3 -29.2 18.5 -52.2 38.1 -71.5 21.7 -21.4 47.4 -33.9 80.1 -39.1 25.7 -4 55.4 0.9 79.9 13.3 13.7 6.9 22.9 13.7 34.5 25.3 27.1 27.1 41.4 61.8 41.4 100.5 -0.1 22 -4.2 39 -14.5 60 -23.7 48 -72.3 78 -125.4 77.4 -6 -0.1 -12.1 -0.3 -13.5 -0.5z m28.5 -71.9 c19 -3.4 35.1 -15.8 44.3 -34.3 6.6 -13.1 8.7 -22.4 7.9 -35.1 -1.5 -25.9 -15.5 -47.2 -38.2 -58.1 -10.4 -4.9 -16.9 -6.4 -28 -6.4 -31 0 -57.6 21.8 -64.1 52.6 -2.3 10.5 -1.4 24.9 2.1 35.3 4.6 13.9 13.7 26.2 25.8 35.1 5.5 4.1 17.6 9.5 25.5 11.3 5.6 1.4 15.8 1.2 24.7 -0.4z"/>
  <path d="M1091.3 557.3 l-31.2 -0.3 0.4 -3.3 c0.6 -4.7 2.9 -239.6 2.4 -240.2 -0.3 -0.2 -16.7 22 -36.4 49.5 -19.8 27.5 -36.3 49.8 -36.7 49.7 -0.4 -0.1 -16.3 -22.9 -35.3 -50.6 -19 -27.7 -34.5 -50.2 -34.5 -50 -0.2 1.6 -2.9 220.2 -3 230.3 l0 12.9 -39.2 -0.6 c-21.5 -0.4 -39.3 -0.9 -39.5 -1.1 -0.2 -0.1 0.5 -66.4 1.5 -147.2 1 -80.8 1.7 -147 1.7 -147.1 -0.1 -0.2 -7.7 -0.6 -16.8 -1 -9.2 -0.3 -16.7 -0.9 -16.7 -1.2 0 -0.3 5.2 -17.9 11.7 -39 l11.7 -38.4 10.5 0.7 c5.7 0.3 24.7 0.6 42.1 0.6 l31.6 0 38 55.9 c20.8 30.8 38.3 55.9 38.9 55.7 0.5 -0.1 17.9 -24.2 38.7 -53.6 20.7 -29.3 38.3 -53.9 39 -54.6 1 -0.9 9.9 -1 37.1 -0.6 l35.7 0.5 0 20.1 c0 11 -0.9 89.6 -2 174.6 -1.1 85 -2 160 -2 166.8 l0 12.2 -8.2 -0.2 c-4.6 -0.2 -22.3 -0.4 -39.5 -0.5z"/>
 </g>
</svg>